<svg width="90" height="48" viewBox="0 0 90 48" fill="none" xmlns="http://www.w3.org/2000/svg">
<rect width="current" height="current" fill="#E11E26"/>
<path d="M43.7173 37.8375L44.0604 36.2082H44.6662L44.7289 37.3451H44.7378L45.3227 36.2082H45.9463L45.5972 37.8375H45.1914L45.3704 37.0318C45.3863 36.9562 45.4033 36.8836 45.4212 36.8139C45.4391 36.7423 45.455 36.6846 45.4689 36.6409H45.4599L44.8423 37.8375H44.4215L44.3559 36.6409H44.3499C44.3399 36.7204 44.329 36.7931 44.3171 36.8587C44.3051 36.9224 44.2922 36.986 44.2783 37.0497L44.1201 37.8375H43.7173Z" fill="white"/>
<path d="M46.5475 37.8673C46.4699 37.8673 46.3953 37.8484 46.3237 37.8106C46.2541 37.7708 46.1974 37.7082 46.1536 37.6226C46.1099 37.5351 46.088 37.4197 46.088 37.2765C46.088 37.171 46.0989 37.0656 46.1208 36.9602C46.1447 36.8547 46.1775 36.7553 46.2193 36.6618C46.263 36.5683 46.3157 36.4857 46.3774 36.4141C46.4391 36.3405 46.5087 36.2828 46.5863 36.241C46.6659 36.1992 46.7514 36.1783 46.8429 36.1783C46.9126 36.1783 46.9722 36.1883 47.022 36.2082C47.0737 36.2281 47.1175 36.2559 47.1533 36.2917C47.1911 36.3275 47.2219 36.3693 47.2458 36.4171H47.2577L47.3413 36.2082H47.6784L47.3323 37.8375H47.0041L47.0249 37.6256H47.013C46.9752 37.6733 46.9334 37.7151 46.8877 37.7509C46.8419 37.7867 46.7912 37.8156 46.7355 37.8375C46.6798 37.8574 46.6171 37.8673 46.5475 37.8673ZM46.7206 37.5122C46.7803 37.5122 46.836 37.4883 46.8877 37.4406C46.9394 37.3928 46.9832 37.3312 47.019 37.2556C47.0568 37.18 47.0836 37.1004 47.0995 37.0169C47.1075 36.9771 47.1125 36.9383 47.1145 36.9005C47.1184 36.8607 47.1204 36.8179 47.1204 36.7722C47.1204 36.7025 47.1025 36.6458 47.0667 36.6021C47.0309 36.5563 46.9812 36.5334 46.9175 36.5334C46.8738 36.5334 46.833 36.5474 46.7952 36.5752C46.7574 36.6031 46.7216 36.6409 46.6878 36.6886C46.6559 36.7364 46.6281 36.7911 46.6042 36.8527C46.5823 36.9144 46.5644 36.9801 46.5505 37.0497C46.5386 37.1173 46.5326 37.1859 46.5326 37.2556C46.5326 37.3411 46.5485 37.4058 46.5803 37.4495C46.6141 37.4913 46.6609 37.5122 46.7206 37.5122Z" fill="white"/>
<path d="M47.7821 37.8375L48.1283 36.2082H48.4625L48.4327 36.5096H48.4446C48.4864 36.4439 48.5321 36.3862 48.5819 36.3365C48.6336 36.2868 48.6903 36.248 48.7519 36.2201C48.8136 36.1923 48.8822 36.1783 48.9578 36.1783C49.0692 36.1783 49.1558 36.2082 49.2175 36.2679C49.2791 36.3256 49.3199 36.4061 49.3398 36.5096H49.3517C49.3935 36.4439 49.4393 36.3862 49.489 36.3365C49.5407 36.2868 49.5984 36.248 49.6621 36.2201C49.7257 36.1923 49.7954 36.1783 49.871 36.1783C50.0062 36.1783 50.1077 36.2211 50.1753 36.3067C50.243 36.3902 50.2768 36.5036 50.2768 36.6468C50.2768 36.6826 50.2738 36.7234 50.2678 36.7692C50.2619 36.8129 50.2539 36.8597 50.244 36.9094L50.05 37.8375H49.6113L49.8113 36.8856C49.8192 36.8517 49.8252 36.8209 49.8292 36.7931C49.8332 36.7632 49.8351 36.7364 49.8351 36.7125C49.8351 36.6508 49.8232 36.6061 49.7993 36.5782C49.7755 36.5484 49.7397 36.5334 49.6919 36.5334C49.6422 36.5334 49.5954 36.5494 49.5517 36.5812C49.5099 36.613 49.4711 36.6578 49.4353 36.7155C49.4015 36.7732 49.3706 36.8398 49.3428 36.9154C49.3169 36.991 49.295 37.0726 49.2771 37.1601L49.1369 37.8375H48.6982L48.8982 36.8856C48.9061 36.8517 48.9121 36.8209 48.9161 36.7931C48.92 36.7632 48.922 36.7364 48.922 36.7125C48.922 36.6508 48.9101 36.6061 48.8862 36.5782C48.8624 36.5484 48.8265 36.5334 48.7788 36.5334C48.7291 36.5334 48.6823 36.5504 48.6386 36.5842C48.5968 36.616 48.558 36.6608 48.5222 36.7185C48.4884 36.7761 48.4575 36.8428 48.4297 36.9184C48.4038 36.994 48.3819 37.0755 48.364 37.1631L48.2208 37.8375H47.7821Z" fill="white"/>
<path d="M51.2056 37.8673C51.0783 37.8673 50.9659 37.8444 50.8684 37.7987C50.7729 37.7529 50.6973 37.6833 50.6416 37.5898C50.5879 37.4963 50.5611 37.3789 50.5611 37.2377C50.5611 37.1004 50.58 36.9691 50.6178 36.8438C50.6576 36.7165 50.7152 36.6031 50.7908 36.5036C50.8684 36.4041 50.9639 36.3256 51.0773 36.2679C51.1907 36.2082 51.322 36.1783 51.4712 36.1783C51.6542 36.1783 51.7905 36.2201 51.88 36.3037C51.9715 36.3872 52.0173 36.4937 52.0173 36.623C52.0173 36.7085 51.9974 36.7861 51.9576 36.8557C51.9198 36.9253 51.8621 36.985 51.7845 37.0348C51.7089 37.0845 51.6124 37.1233 51.4951 37.1511C51.3777 37.177 51.2394 37.1899 51.0803 37.1899H51.0057C51.0037 37.2019 51.0027 37.2128 51.0027 37.2228C51.0027 37.2307 51.0027 37.2397 51.0027 37.2496C51.0027 37.3371 51.0276 37.4068 51.0773 37.4585C51.129 37.5102 51.2006 37.5361 51.2922 37.5361C51.3777 37.5361 51.4553 37.5261 51.5249 37.5062C51.5945 37.4863 51.6771 37.4545 51.7726 37.4107V37.742C51.687 37.7837 51.6005 37.8156 51.513 37.8375C51.4254 37.8574 51.323 37.8673 51.2056 37.8673ZM51.1191 36.8945C51.2325 36.8945 51.324 36.8826 51.3936 36.8587C51.4632 36.8348 51.514 36.803 51.5458 36.7632C51.5796 36.7214 51.5965 36.6777 51.5965 36.6319C51.5965 36.5862 51.5826 36.5523 51.5548 36.5305C51.5289 36.5066 51.4921 36.4947 51.4443 36.4947C51.3906 36.4947 51.3369 36.5116 51.2832 36.5454C51.2295 36.5792 51.1818 36.6259 51.14 36.6856C51.1002 36.7453 51.0713 36.8149 51.0534 36.8945H51.1191Z" fill="white"/>
<path d="M51.9923 38.5536L52.4907 36.2082H52.8249L52.801 36.4559H52.8129C52.8468 36.4081 52.8855 36.3634 52.9293 36.3216C52.9751 36.2798 53.0268 36.246 53.0845 36.2201C53.1422 36.1923 53.2058 36.1783 53.2755 36.1783C53.355 36.1783 53.4296 36.1982 53.4993 36.238C53.5689 36.2758 53.6256 36.3385 53.6693 36.426C53.7131 36.5116 53.735 36.6269 53.735 36.7722C53.735 36.8776 53.7231 36.983 53.6992 37.0885C53.6773 37.1939 53.6445 37.2934 53.6007 37.3869C53.5589 37.4804 53.5072 37.5629 53.4455 37.6345C53.3839 37.7062 53.3133 37.7629 53.2337 37.8046C53.1561 37.8464 53.0715 37.8673 52.98 37.8673C52.9144 37.8673 52.8587 37.8574 52.8129 37.8375C52.7672 37.8156 52.7284 37.7867 52.6966 37.7509C52.6647 37.7131 52.6359 37.6723 52.61 37.6286H52.5981C52.5921 37.7082 52.5842 37.7808 52.5742 37.8464C52.5643 37.9121 52.5513 37.9827 52.5354 38.0583L52.431 38.5536H51.9923ZM52.9054 37.5122C52.9492 37.5122 52.99 37.4983 53.0278 37.4704C53.0656 37.4426 53.1004 37.4048 53.1322 37.357C53.166 37.3093 53.1939 37.2546 53.2158 37.1929C53.2396 37.1312 53.2576 37.0656 53.2695 36.996C53.2834 36.9263 53.2904 36.8577 53.2904 36.7901C53.2904 36.7045 53.2745 36.6409 53.2426 36.5991C53.2108 36.5553 53.1631 36.5334 53.0994 36.5334C53.0517 36.5334 53.0089 36.5454 52.9711 36.5693C52.9333 36.5931 52.8995 36.6259 52.8696 36.6677C52.8418 36.7075 52.8169 36.7533 52.795 36.805C52.7731 36.8567 52.7552 36.9094 52.7413 36.9631C52.7294 37.0169 52.7194 37.0696 52.7115 37.1213C52.7055 37.171 52.7025 37.2158 52.7025 37.2556C52.7025 37.3332 52.7204 37.3958 52.7562 37.4436C52.794 37.4893 52.8438 37.5122 52.9054 37.5122Z" fill="white"/>
<path d="M54.4414 37.8673C54.3479 37.8673 54.2703 37.8484 54.2086 37.8106C54.147 37.7708 54.1012 37.7161 54.0714 37.6465C54.0415 37.5769 54.0266 37.4943 54.0266 37.3988C54.0266 37.363 54.0296 37.3172 54.0356 37.2615C54.0415 37.2039 54.0505 37.1462 54.0624 37.0885L54.2474 36.2082H54.6861L54.4861 37.1601C54.4782 37.1919 54.4722 37.2228 54.4682 37.2526C54.4643 37.2824 54.4623 37.3093 54.4623 37.3332C54.4623 37.3948 54.4752 37.4406 54.5011 37.4704C54.5289 37.4983 54.5687 37.5122 54.6204 37.5122C54.6881 37.5122 54.7477 37.4844 54.7995 37.4286C54.8532 37.371 54.8999 37.2944 54.9397 37.1989C54.9795 37.1034 55.0113 36.998 55.0352 36.8826L55.1784 36.2082H55.6171L55.2709 37.8375H54.9367L54.9666 37.5361H54.9517C54.9099 37.5997 54.8641 37.6574 54.8144 37.7091C54.7647 37.7589 54.709 37.7977 54.6473 37.8255C54.5856 37.8534 54.517 37.8673 54.4414 37.8673Z" fill="white"/>
<path d="M56.2572 37.8673C56.1796 37.8673 56.105 37.8484 56.0334 37.8106C55.9638 37.7708 55.9071 37.7082 55.8633 37.6226C55.8196 37.5351 55.7977 37.4197 55.7977 37.2765C55.7977 37.171 55.8086 37.0656 55.8305 36.9602C55.8544 36.8547 55.8872 36.7553 55.929 36.6618C55.9727 36.5683 56.0255 36.4857 56.0871 36.4141C56.1488 36.3405 56.2184 36.2828 56.296 36.241C56.3756 36.1992 56.4611 36.1783 56.5526 36.1783C56.6223 36.1783 56.6819 36.1883 56.7317 36.2082C56.7834 36.2281 56.8272 36.2559 56.863 36.2917C56.9008 36.3275 56.9316 36.3693 56.9555 36.4171H56.9674L57.051 36.2082H57.3882L57.042 37.8375H56.7138L56.7347 37.6256H56.7227C56.6849 37.6733 56.6431 37.7151 56.5974 37.7509C56.5516 37.7867 56.5009 37.8156 56.4452 37.8375C56.3895 37.8574 56.3268 37.8673 56.2572 37.8673ZM56.4303 37.5122C56.49 37.5122 56.5457 37.4883 56.5974 37.4406C56.6491 37.3928 56.6929 37.3312 56.7287 37.2556C56.7665 37.18 56.7933 37.1004 56.8093 37.0169C56.8172 36.9771 56.8222 36.9383 56.8242 36.9005C56.8282 36.8607 56.8301 36.8179 56.8301 36.7722C56.8301 36.7025 56.8122 36.6458 56.7764 36.6021C56.7406 36.5563 56.6909 36.5334 56.6272 36.5334C56.5835 36.5334 56.5427 36.5474 56.5049 36.5752C56.4671 36.6031 56.4313 36.6409 56.3975 36.6886C56.3656 36.7364 56.3378 36.7911 56.3139 36.8527C56.292 36.9144 56.2741 36.9801 56.2602 37.0497C56.2483 37.1173 56.2423 37.1859 56.2423 37.2556C56.2423 37.3411 56.2582 37.4058 56.29 37.4495C56.3239 37.4913 56.3706 37.5122 56.4303 37.5122Z" fill="white"/>
<path d="M57.5694 37.8673C57.5257 37.8673 57.4869 37.8643 57.4531 37.8583C57.4192 37.8544 57.3854 37.8454 57.3516 37.8315V37.4704C57.3735 37.4784 57.3944 37.4844 57.4143 37.4883C57.4322 37.4923 57.4521 37.4943 57.4739 37.4943C57.5117 37.4943 57.5446 37.4814 57.5724 37.4555C57.6023 37.4277 57.6281 37.3899 57.65 37.3421C57.6739 37.2944 57.6958 37.2397 57.7156 37.178C57.7375 37.1163 57.7604 37.0517 57.7843 36.984C57.832 36.8468 57.8798 36.7274 57.9275 36.6259C57.9753 36.5245 58.031 36.4409 58.0946 36.3753C58.1583 36.3096 58.2388 36.2609 58.3363 36.2291C58.4338 36.1953 58.5561 36.1783 58.7034 36.1783C58.8028 36.1783 58.8973 36.1873 58.9868 36.2052C59.0783 36.2211 59.152 36.24 59.2077 36.2619L58.8764 37.8375H58.4378L58.7123 36.5484C58.6984 36.5444 58.6835 36.5414 58.6675 36.5394C58.6516 36.5374 58.6357 36.5364 58.6198 36.5364C58.5402 36.5364 58.4756 36.5593 58.4258 36.6051C58.3781 36.6508 58.3363 36.7185 58.3005 36.808C58.2647 36.8975 58.2239 37.0089 58.1782 37.1422C58.1444 37.2417 58.1105 37.3351 58.0767 37.4227C58.0449 37.5102 58.0071 37.5878 57.9633 37.6554C57.9196 37.7211 57.8658 37.7728 57.8022 37.8106C57.7405 37.8484 57.6629 37.8673 57.5694 37.8673Z" fill="white"/>
<path d="M59.9961 37.8673C59.8529 37.8673 59.7395 37.8464 59.656 37.8046C59.5744 37.7629 59.5157 37.7062 59.4799 37.6345C59.4461 37.5609 59.4292 37.4804 59.4292 37.3928C59.4292 37.367 59.4312 37.3302 59.4351 37.2824C59.4391 37.2327 59.4481 37.178 59.462 37.1183L59.6589 36.2082H60.0976L59.9544 36.8706C59.9941 36.8607 60.0389 36.8527 60.0886 36.8468C60.1384 36.8408 60.1921 36.8378 60.2498 36.8378C60.3393 36.8378 60.4179 36.8557 60.4855 36.8915C60.5551 36.9253 60.6089 36.9751 60.6466 37.0407C60.6864 37.1044 60.7063 37.181 60.7063 37.2705C60.7063 37.372 60.6815 37.4684 60.6317 37.5599C60.584 37.6495 60.5074 37.7231 60.402 37.7808C60.2985 37.8385 60.1632 37.8673 59.9961 37.8673ZM60.0319 37.5599C60.0677 37.5599 60.0996 37.555 60.1274 37.545C60.1573 37.5331 60.1821 37.5162 60.202 37.4943C60.2239 37.4724 60.2398 37.4466 60.2498 37.4167C60.2617 37.3869 60.2677 37.354 60.2677 37.3182C60.2677 37.2785 60.2607 37.2466 60.2468 37.2228C60.2329 37.1969 60.212 37.178 60.1841 37.1661C60.1583 37.1521 60.1254 37.1452 60.0857 37.1452C60.0558 37.1452 60.025 37.1472 59.9931 37.1511C59.9633 37.1551 59.9305 37.1621 59.8947 37.172C59.8827 37.2237 59.8748 37.2625 59.8708 37.2884C59.8668 37.3123 59.8648 37.3431 59.8648 37.3809C59.8648 37.4446 59.8817 37.4903 59.9156 37.5182C59.9494 37.546 59.9882 37.5599 60.0319 37.5599ZM60.8346 37.8375L61.1808 36.2082H61.6194L61.2733 37.8375H60.8346Z" fill="white"/>
<path d="M63.2054 37.8673C63.0602 37.8673 62.9409 37.8394 62.8474 37.7837C62.7539 37.7261 62.6852 37.6485 62.6415 37.551C62.5977 37.4535 62.5758 37.3441 62.5758 37.2228C62.5758 37.1113 62.5868 37.0089 62.6086 36.9154C62.6305 36.8199 62.6623 36.7354 62.7041 36.6618C62.7459 36.5862 62.7956 36.5225 62.8533 36.4708C62.911 36.4171 62.9757 36.3763 63.0473 36.3484C63.1189 36.3206 63.1965 36.3067 63.28 36.3067C63.3477 36.3067 63.4064 36.3186 63.4561 36.3425C63.5078 36.3663 63.5526 36.3982 63.5904 36.438C63.6282 36.4777 63.66 36.5225 63.6859 36.5722H63.6978C63.6998 36.5563 63.7008 36.5394 63.7008 36.5215C63.7008 36.5016 63.7008 36.4867 63.7008 36.4767C63.7008 36.2818 63.67 36.1396 63.6083 36.05C63.5486 35.9585 63.4511 35.9128 63.3158 35.9128C63.2701 35.9128 63.2204 35.9187 63.1666 35.9307C63.1129 35.9406 63.0642 35.9545 63.0204 35.9724L62.9279 35.6263C62.9916 35.6024 63.0622 35.5845 63.1398 35.5726C63.2174 35.5607 63.2989 35.5547 63.3845 35.5547C63.5635 35.5547 63.7087 35.5925 63.8201 35.6681C63.9315 35.7437 64.0131 35.8511 64.0648 35.9904C64.1166 36.1296 64.1424 36.2947 64.1424 36.4857C64.1424 36.5971 64.1345 36.7095 64.1185 36.8229C64.1046 36.9343 64.0817 37.0417 64.0499 37.1452C64.0181 37.2466 63.9773 37.3411 63.9276 37.4286C63.8798 37.5162 63.8211 37.5928 63.7515 37.6584C63.6819 37.7241 63.6013 37.7758 63.5098 37.8136C63.4203 37.8494 63.3188 37.8673 63.2054 37.8673ZM63.2293 37.5092C63.279 37.5092 63.3238 37.4983 63.3636 37.4764C63.4034 37.4525 63.4382 37.4197 63.468 37.3779C63.4999 37.3361 63.5267 37.2884 63.5486 37.2347C63.5725 37.181 63.5924 37.1233 63.6083 37.0616C63.6242 36.998 63.6371 36.9333 63.6471 36.8677C63.6351 36.8239 63.6172 36.7861 63.5934 36.7543C63.5695 36.7204 63.5396 36.6936 63.5038 36.6737C63.47 36.6538 63.4302 36.6439 63.3845 36.6439C63.3387 36.6439 63.2969 36.6528 63.2592 36.6707C63.2214 36.6886 63.1875 36.7155 63.1577 36.7513C63.1279 36.7851 63.102 36.8269 63.0801 36.8766C63.0602 36.9244 63.0443 36.9791 63.0324 37.0407C63.0224 37.1004 63.0174 37.1661 63.0174 37.2377C63.0174 37.3232 63.0354 37.3899 63.0712 37.4376C63.109 37.4853 63.1617 37.5092 63.2293 37.5092Z" fill="white"/>
<path d="M64.368 37.8673C64.3242 37.8673 64.2854 37.8643 64.2516 37.8583C64.2178 37.8544 64.184 37.8454 64.1501 37.8315V37.4704C64.172 37.4784 64.1929 37.4844 64.2128 37.4883C64.2307 37.4923 64.2506 37.4943 64.2725 37.4943C64.3103 37.4943 64.3431 37.4814 64.371 37.4555C64.4008 37.4277 64.4267 37.3899 64.4485 37.3421C64.4724 37.2944 64.4943 37.2397 64.5142 37.178C64.5361 37.1163 64.5589 37.0517 64.5828 36.984C64.6306 36.8468 64.6783 36.7274 64.7261 36.6259C64.7738 36.5245 64.8295 36.4409 64.8932 36.3753C64.9568 36.3096 65.0374 36.2609 65.1349 36.2291C65.2323 36.1953 65.3547 36.1783 65.5019 36.1783C65.6014 36.1783 65.6959 36.1873 65.7854 36.2052C65.8769 36.2211 65.9505 36.24 66.0062 36.2619L65.675 37.8375H65.2363L65.5108 36.5484C65.4969 36.5444 65.482 36.5414 65.4661 36.5394C65.4502 36.5374 65.4343 36.5364 65.4183 36.5364C65.3388 36.5364 65.2741 36.5593 65.2244 36.6051C65.1766 36.6508 65.1349 36.7185 65.0991 36.808C65.0632 36.8975 65.0225 37.0089 64.9767 37.1422C64.9429 37.2417 64.9091 37.3351 64.8753 37.4227C64.8434 37.5102 64.8056 37.5878 64.7619 37.6554C64.7181 37.7211 64.6644 37.7728 64.6007 37.8106C64.5391 37.8484 64.4615 37.8673 64.368 37.8673Z" fill="white"/>
<path d="M66.2635 37.8673C66.2217 37.8673 66.182 37.8643 66.1442 37.8583C66.1064 37.8524 66.0725 37.8434 66.0427 37.8315V37.4704C66.0586 37.4764 66.0755 37.4824 66.0934 37.4883C66.1133 37.4923 66.1342 37.4943 66.1561 37.4943C66.1839 37.4943 66.2078 37.4893 66.2277 37.4794C66.2476 37.4694 66.2655 37.4555 66.2814 37.4376C66.2973 37.4197 66.3113 37.3998 66.3232 37.3779C66.357 37.3222 66.3869 37.2765 66.4127 37.2407C66.4406 37.2048 66.4694 37.176 66.4993 37.1541C66.5291 37.1322 66.5629 37.1153 66.6007 37.1034C66.5569 37.0855 66.5172 37.0616 66.4814 37.0318C66.4475 37.0019 66.4207 36.9651 66.4008 36.9214C66.3809 36.8756 66.3709 36.8219 66.3709 36.7602C66.3709 36.6628 66.3888 36.5792 66.4247 36.5096C66.4625 36.4399 66.5132 36.3832 66.5768 36.3395C66.6425 36.2937 66.7181 36.2609 66.8036 36.241C66.8892 36.2191 66.9797 36.2082 67.0752 36.2082H67.7555L67.4124 37.8375H66.9737L67.105 37.2317H67.0155C66.9518 37.2317 66.9021 37.2526 66.8663 37.2944C66.8305 37.3342 66.7977 37.3849 66.7678 37.4466C66.74 37.5082 66.7052 37.5729 66.6634 37.6405C66.6375 37.6823 66.6067 37.7201 66.5709 37.7539C66.5351 37.7877 66.4923 37.8156 66.4426 37.8375C66.3928 37.8574 66.3331 37.8673 66.2635 37.8673ZM67.0334 36.9333H67.1677L67.2542 36.5215H67.0692C67.0215 36.5215 66.9787 36.5305 66.9409 36.5484C66.9031 36.5663 66.8733 36.5931 66.8514 36.6289C66.8295 36.6628 66.8185 36.7045 66.8185 36.7543C66.8185 36.808 66.8355 36.8517 66.8693 36.8856C66.9051 36.9174 66.9598 36.9333 67.0334 36.9333Z" fill="white"/>
<path d="M69.3394 37.8673C69.2181 37.8673 69.1097 37.8424 69.0142 37.7927C68.9207 37.741 68.8471 37.6684 68.7934 37.5749C68.7416 37.4814 68.7158 37.37 68.7158 37.2407C68.7158 37.1253 68.7267 37.0149 68.7486 36.9094C68.7725 36.804 68.8073 36.7075 68.853 36.62C68.8988 36.5305 68.9565 36.4529 69.0261 36.3872C69.0957 36.3216 69.1763 36.2709 69.2678 36.235C69.3613 36.1972 69.4658 36.1783 69.5811 36.1783C69.7085 36.1783 69.8179 36.2042 69.9094 36.2559C70.0009 36.3057 70.0715 36.3793 70.1212 36.4767C70.173 36.5722 70.1988 36.6876 70.1988 36.8229C70.1988 36.9323 70.1879 37.0387 70.166 37.1422C70.1441 37.2456 70.1103 37.3411 70.0645 37.4286C70.0208 37.5162 69.9651 37.5928 69.8974 37.6584C69.8298 37.7241 69.7492 37.7758 69.6557 37.8136C69.5622 37.8494 69.4568 37.8673 69.3394 37.8673ZM69.3752 37.5092C69.423 37.5092 69.4668 37.4973 69.5065 37.4734C69.5463 37.4475 69.5821 37.4127 69.614 37.369C69.6458 37.3252 69.6717 37.2745 69.6915 37.2168C69.7134 37.1591 69.7293 37.0964 69.7393 37.0288C69.7512 36.9612 69.7572 36.8925 69.7572 36.8229C69.7572 36.7672 69.7502 36.7185 69.7363 36.6767C69.7244 36.6329 69.7025 36.5991 69.6707 36.5752C69.6408 36.5494 69.6 36.5364 69.5483 36.5364C69.4946 36.5364 69.4469 36.5513 69.4051 36.5812C69.3633 36.611 69.3265 36.6508 69.2947 36.7005C69.2648 36.7483 69.239 36.803 69.2171 36.8647C69.1972 36.9263 69.1823 36.99 69.1723 37.0556C69.1624 37.1193 69.1574 37.181 69.1574 37.2407C69.1574 37.3282 69.1753 37.3948 69.2111 37.4406C69.2469 37.4863 69.3016 37.5092 69.3752 37.5092Z" fill="white"/>
<path d="M71.0909 37.8494C70.9537 37.8335 70.8383 37.7947 70.7448 37.733C70.6513 37.6713 70.5807 37.5928 70.5329 37.4973C70.4852 37.4018 70.4613 37.2954 70.4613 37.178C70.4613 37.0905 70.4722 37.0029 70.4941 36.9154C70.516 36.8259 70.5498 36.7403 70.5956 36.6588C70.6433 36.5772 70.705 36.5036 70.7806 36.438C70.8562 36.3703 70.9487 36.3156 71.0581 36.2738C71.1675 36.2301 71.2948 36.2042 71.4401 36.1963L71.5714 35.5696H71.9891L71.8578 36.1992C72.0587 36.2271 72.2119 36.3017 72.3174 36.423C72.4228 36.5444 72.4755 36.6966 72.4755 36.8796C72.4755 36.9572 72.4666 37.0387 72.4487 37.1243C72.4327 37.2078 72.4029 37.2904 72.3591 37.372C72.3174 37.4515 72.2597 37.5261 72.1861 37.5958C72.1125 37.6634 72.02 37.7211 71.9086 37.7688C71.7971 37.8166 71.6619 37.8484 71.5027 37.8643L71.3625 38.5536H70.9387L71.0909 37.8494ZM71.3684 36.5364C71.2809 36.5424 71.2073 36.5663 71.1476 36.608C71.0879 36.6498 71.0402 36.7015 71.0044 36.7632C70.9706 36.8249 70.9457 36.8895 70.9298 36.9572C70.9159 37.0248 70.9089 37.0865 70.9089 37.1422C70.9089 37.2078 70.9179 37.2675 70.9358 37.3212C70.9557 37.3729 70.9835 37.4157 71.0193 37.4495C71.0571 37.4814 71.1039 37.5013 71.1596 37.5092L71.3684 36.5364ZM71.5773 37.5092C71.6509 37.4993 71.7136 37.4784 71.7653 37.4466C71.817 37.4147 71.8598 37.3759 71.8936 37.3302C71.9294 37.2844 71.9573 37.2357 71.9772 37.184C71.9971 37.1322 72.011 37.0815 72.019 37.0318C72.0269 36.9801 72.0309 36.9323 72.0309 36.8885C72.0309 36.8289 72.021 36.7751 72.0011 36.7274C71.9832 36.6777 71.9553 36.6369 71.9175 36.6051C71.8817 36.5732 71.8369 36.5523 71.7832 36.5424L71.5773 37.5092Z" fill="white"/>
<path d="M73.1818 37.8673C73.0883 37.8673 73.0107 37.8484 72.9491 37.8106C72.8874 37.7708 72.8416 37.7161 72.8118 37.6465C72.782 37.5769 72.767 37.4943 72.767 37.3988C72.767 37.363 72.77 37.3172 72.776 37.2615C72.782 37.2039 72.7909 37.1462 72.8028 37.0885L72.9879 36.2082H73.4265L73.2266 37.1601C73.2186 37.1919 73.2127 37.2228 73.2087 37.2526C73.2047 37.2824 73.2027 37.3093 73.2027 37.3332C73.2027 37.3948 73.2156 37.4406 73.2415 37.4704C73.2693 37.4983 73.3091 37.5122 73.3609 37.5122C73.4285 37.5122 73.4882 37.4844 73.5399 37.4286C73.5936 37.371 73.6404 37.2944 73.6801 37.1989C73.7199 37.1034 73.7518 36.998 73.7756 36.8826L73.9189 36.2082H74.3575L74.0114 37.8375H73.6772L73.707 37.5361H73.6921C73.6503 37.5997 73.6046 37.6574 73.5548 37.7091C73.5051 37.7589 73.4494 37.7977 73.3877 37.8255C73.326 37.8534 73.2574 37.8673 73.1818 37.8673Z" fill="white"/>
<path d="M75.1439 37.8673C75.0324 37.8673 74.93 37.8474 74.8365 37.8076C74.745 37.7658 74.6724 37.7012 74.6187 37.6137C74.565 37.5261 74.5381 37.4107 74.5381 37.2675C74.5381 37.1501 74.55 37.0377 74.5739 36.9303C74.5998 36.8229 74.6356 36.7234 74.6813 36.6319C74.7291 36.5404 74.7878 36.4608 74.8574 36.3932C74.927 36.3256 75.0076 36.2728 75.0991 36.235C75.1906 36.1972 75.2911 36.1783 75.4005 36.1783C75.498 36.1783 75.5845 36.1873 75.6601 36.2052C75.7377 36.2231 75.8103 36.249 75.8779 36.2828L75.7436 36.617C75.6919 36.5951 75.6402 36.5762 75.5885 36.5603C75.5387 36.5424 75.482 36.5334 75.4184 36.5334C75.3627 36.5334 75.312 36.5464 75.2662 36.5722C75.2204 36.5981 75.1797 36.6339 75.1439 36.6797C75.11 36.7254 75.0802 36.7781 75.0543 36.8378C75.0305 36.8975 75.0126 36.9612 75.0006 37.0288C74.9887 37.0944 74.9827 37.1621 74.9827 37.2317C74.9827 37.2934 74.9927 37.3451 75.0126 37.3869C75.0324 37.4286 75.0603 37.4605 75.0961 37.4824C75.1339 37.5023 75.1797 37.5122 75.2334 37.5122C75.307 37.5122 75.3746 37.5013 75.4363 37.4794C75.4999 37.4555 75.5656 37.4267 75.6332 37.3928V37.7509C75.5656 37.7867 75.492 37.8156 75.4124 37.8375C75.3348 37.8574 75.2453 37.8673 75.1439 37.8673Z" fill="white"/>
<path d="M76.4401 37.8673C76.3625 37.8673 76.2879 37.8484 76.2163 37.8106C76.1467 37.7708 76.09 37.7082 76.0462 37.6226C76.0024 37.5351 75.9806 37.4197 75.9806 37.2765C75.9806 37.171 75.9915 37.0656 76.0134 36.9602C76.0373 36.8547 76.0701 36.7553 76.1119 36.6618C76.1556 36.5683 76.2083 36.4857 76.27 36.4141C76.3317 36.3405 76.4013 36.2828 76.4789 36.241C76.5585 36.1992 76.644 36.1783 76.7355 36.1783C76.8051 36.1783 76.8648 36.1883 76.9146 36.2082C76.9663 36.2281 77.0101 36.2559 77.0459 36.2917C77.0837 36.3275 77.1145 36.3693 77.1384 36.4171H77.1503L77.2339 36.2082H77.571L77.2249 37.8375H76.8967L76.9175 37.6256H76.9056C76.8678 37.6733 76.826 37.7151 76.7803 37.7509C76.7345 37.7867 76.6838 37.8156 76.6281 37.8375C76.5724 37.8574 76.5097 37.8673 76.4401 37.8673ZM76.6132 37.5122C76.6729 37.5122 76.7286 37.4883 76.7803 37.4406C76.832 37.3928 76.8758 37.3312 76.9116 37.2556C76.9494 37.18 76.9762 37.1004 76.9921 37.0169C77.0001 36.9771 77.0051 36.9383 77.0071 36.9005C77.011 36.8607 77.013 36.8179 77.013 36.7722C77.013 36.7025 76.9951 36.6458 76.9593 36.6021C76.9235 36.5563 76.8738 36.5334 76.8101 36.5334C76.7664 36.5334 76.7256 36.5474 76.6878 36.5752C76.65 36.6031 76.6142 36.6409 76.5804 36.6886C76.5485 36.7364 76.5207 36.7911 76.4968 36.8527C76.4749 36.9144 76.457 36.9801 76.4431 37.0497C76.4312 37.1173 76.4252 37.1859 76.4252 37.2556C76.4252 37.3411 76.4411 37.4058 76.4729 37.4495C76.5067 37.4913 76.5535 37.5122 76.6132 37.5122Z" fill="white"/>
<path d="M9.19928 5.96875V18.814V22.4732L12.8508 18.814H15.3197L11.1703 22.8474L15.7346 28.5442H13.3072L9.84244 24.1157L9.19928 24.7602V28.5442H7.33203V5.96875H9.19928Z" fill="white"/>
<path d="M23.0662 27.2136C24.0344 27.2136 24.8089 26.8601 25.3898 26.1532C25.9431 25.5018 26.2197 24.6771 26.2197 23.6791C26.2197 22.695 25.9362 21.8703 25.3691 21.205C24.802 20.5258 24.0344 20.1862 23.0662 20.1862C22.1395 20.1862 21.3926 20.5327 20.8255 21.2257C20.2722 21.9049 19.9956 22.7227 19.9956 23.6791C19.9956 24.6493 20.2584 25.4671 20.784 26.1324C21.3511 26.8532 22.1118 27.2136 23.0662 27.2136ZM27.9832 18.814V28.5442H26.116V27.0265H26.0745C25.2308 28.2601 24.1312 28.8769 22.7757 28.8769C21.3372 28.8769 20.1892 28.3502 19.3317 27.2967C18.5294 26.3126 18.1283 25.086 18.1283 23.6167C18.1283 22.2306 18.5364 21.0456 19.3524 20.0614C20.2238 19.0357 21.3441 18.5229 22.7135 18.5229C24.1104 18.5229 25.2308 19.1605 26.0745 20.4357H26.116V18.814H27.9832Z" fill="white"/>
<path d="M34.8368 18.814V20.1238H34.8783C35.473 19.0565 36.4481 18.5229 37.8036 18.5229C40.0996 18.5229 41.2476 19.9298 41.2476 22.7435V41.4359H39.3804V22.9722C39.3804 22.0158 39.2628 21.3436 39.0277 20.9555C38.7234 20.4426 38.1286 20.1862 37.2434 20.1862C36.1784 20.1862 35.4799 20.6159 35.148 21.4752C34.9405 21.9742 34.8368 22.8405 34.8368 24.0741V28.5442H32.9695V18.814H34.8368Z" fill="white"/>
<path d="M48.31 26.7978H54.6172V28.5442H44.6793L51.2561 20.5604H45.7996V18.814H54.8869L48.31 26.7978Z" fill="white"/>
<path d="M60.9539 5.96875V28.5442H59.0867V5.96875H60.9539Z" fill="white"/>
<path d="M74.9269 23.991H67.5202C67.5202 24.8642 67.783 25.6057 68.3085 26.2156C68.8618 26.8809 69.5741 27.2136 70.4455 27.2136C71.6073 27.2136 72.5755 26.5829 73.3501 25.3216L74.9269 26.2156C74.4705 27.0472 73.8411 27.6987 73.0389 28.17C72.2367 28.6412 71.3653 28.8769 70.4248 28.8769C68.9725 28.8769 67.8106 28.3917 66.9392 27.4215C66.0817 26.4512 65.6529 25.2315 65.6529 23.7623C65.6529 22.2099 66.0471 20.9624 66.8355 20.0199C67.6792 19.0219 68.8618 18.5229 70.3833 18.5229C71.8632 18.5229 73.0043 19.0219 73.8065 20.0199C74.5534 20.9485 74.9269 22.1752 74.9269 23.6999V23.991ZM67.6239 22.5772H73.0596C72.9352 21.8287 72.6378 21.2396 72.1675 20.8099C71.6973 20.3664 71.1025 20.1446 70.3833 20.1446C69.664 20.1446 69.0485 20.3733 68.5368 20.8307C68.0388 21.2881 67.7345 21.8703 67.6239 22.5772Z" fill="white"/>
<path d="M81.5158 18.814V20.3941H81.578C82.076 19.1466 82.9612 18.5229 84.2337 18.5229C84.7593 18.5229 85.271 18.6823 85.769 19.0011L84.9183 20.706C84.614 20.4426 84.2337 20.3109 83.7772 20.3109C82.2696 20.3109 81.578 21.5236 81.578 23.8245V41.3894H79.6486V18.814H81.5158Z" fill="white"/>
</svg>
